# This file uses centimeters as units for non-parametric coordinates.

mtllib star.mtl
g default
v 0.736532 0.250046 -0.001266
v 0.205216 0.250589 -0.001266
v -0.000290 0.781585 -0.001266
v -0.203228 0.249211 -0.001266
v -0.733505 0.245078 -0.001266
v -0.328132 -0.139669 -0.001266
v -0.449833 -0.618039 -0.001266
v 0.003116 -0.378630 -0.001266
v 0.458700 -0.614969 -0.001266
v 0.332743 -0.137437 -0.001266
v 0.002895 0.069469 -0.108926
v 0.003075 0.069300 0.103481
v 0.736532 0.250046 -0.001266
v 0.205216 0.250589 -0.001266
v -0.000290 0.781585 -0.001266
v -0.203228 0.249211 -0.001266
v -0.733505 0.245078 -0.001266
v -0.328132 -0.139669 -0.001266
v -0.449833 -0.618039 -0.001266
v 0.003116 -0.378630 -0.001266
v 0.458700 -0.614969 -0.001266
v 0.332743 -0.137437 -0.001266
v 0.002895 0.069469 -0.108926
v 0.003075 0.069300 0.103481
v 0.736532 0.250046 -0.001266
v 0.205216 0.250589 -0.001266
v -0.000290 0.781585 -0.001266
v -0.203228 0.249211 -0.001266
v -0.733505 0.245078 -0.001266
v -0.328132 -0.139669 -0.001266
v -0.449833 -0.618039 -0.001266
v 0.003116 -0.378630 -0.001266
v 0.458700 -0.614969 -0.001266
v 0.332743 -0.137437 -0.001266
v 0.002895 0.069469 -0.108926
v 0.003075 0.069300 0.103481
vt 0.375000 0.312500
vt 0.500000 0.688440
vt 0.400000 0.312500
vt 0.425000 0.312500
vt 0.450000 0.312500
vt 0.475000 0.312500
vt 0.500000 0.312500
vt 0.525000 0.312500
vt 0.550000 0.312500
vt 0.575000 0.312500
vt 0.600000 0.312500
vt 0.625000 0.312500
vt 0.626409 0.064409
vt 0.500000 0.156250
vt 0.656250 0.156250
vt 0.626409 0.248091
vt 0.548284 0.304853
vt 0.451716 0.304853
vt 0.373591 0.248091
vt 0.343750 0.156250
vt 0.373591 0.064409
vt 0.451716 0.007647
vt 0.548284 0.007647
vt 0.375000 0.312500
vt 0.500000 0.688440
vt 0.400000 0.312500
vt 0.425000 0.312500
vt 0.450000 0.312500
vt 0.475000 0.312500
vt 0.500000 0.312500
vt 0.525000 0.312500
vt 0.550000 0.312500
vt 0.575000 0.312500
vt 0.600000 0.312500
vt 0.625000 0.312500
vt 0.626409 0.064409
vt 0.500000 0.156250
vt 0.656250 0.156250
vt 0.626409 0.248091
vt 0.548284 0.304853
vt 0.451716 0.304853
vt 0.373591 0.248091
vt 0.343750 0.156250
vt 0.373591 0.064409
vt 0.451716 0.007647
vt 0.548284 0.007647
vt 0.375000 0.312500
vt 0.500000 0.688440
vt 0.400000 0.312500
vt 0.425000 0.312500
vt 0.450000 0.312500
vt 0.475000 0.312500
vt 0.500000 0.312500
vt 0.525000 0.312500
vt 0.550000 0.312500
vt 0.575000 0.312500
vt 0.600000 0.312500
vt 0.625000 0.312500
vt 0.626409 0.064409
vt 0.500000 0.156250
vt 0.656250 0.156250
vt 0.626409 0.248091
vt 0.548284 0.304853
vt 0.451716 0.304853
vt 0.373591 0.248091
vt 0.343750 0.156250
vt 0.373591 0.064409
vt 0.451716 0.007647
vt 0.548284 0.007647
vn 0.000523 0.510528 -0.859861
vn 0.000523 0.510528 -0.859861
vn 0.000523 0.510528 -0.859861
vn 0.363878 0.140828 -0.920739
vn 0.363878 0.140828 -0.920739
vn 0.363878 0.140828 -0.920739
vn -0.361483 0.137795 -0.922140
vn -0.361483 0.137795 -0.922140
vn -0.361483 0.137795 -0.922140
vn -0.003978 0.510481 -0.859880
vn -0.003978 0.510481 -0.859880
vn -0.003978 0.510481 -0.859880
vn -0.187846 -0.197916 -0.962051
vn -0.187846 -0.197916 -0.962051
vn -0.187846 -0.197916 -0.962051
vn -0.359816 0.091540 -0.928522
vn -0.359816 0.091540 -0.928522
vn -0.359816 0.091540 -0.928522
vn 0.122515 -0.231794 -0.965019
vn 0.122515 -0.231794 -0.965019
vn 0.122515 -0.231794 -0.965019
vn -0.120337 -0.231969 -0.965251
vn -0.120337 -0.231969 -0.965251
vn -0.120337 -0.231969 -0.965251
vn 0.362565 0.095632 -0.927039
vn 0.362565 0.095632 -0.927039
vn 0.362565 0.095632 -0.927039
vn 0.189812 -0.197799 -0.961690
vn 0.189812 -0.197799 -0.961690
vn 0.189812 -0.197799 -0.961690
vn 0.185160 -0.192952 0.963579
vn 0.185160 -0.192952 0.963579
vn 0.185160 -0.192952 0.963579
vn 0.354238 0.093435 0.930476
vn 0.354238 0.093435 0.930476
vn 0.354238 0.093435 0.930476
vn -0.117313 -0.226141 0.967005
vn -0.117313 -0.226141 0.967005
vn -0.117313 -0.226141 0.967005
vn 0.119486 -0.226062 0.966757
vn 0.119486 -0.226062 0.966757
vn 0.119486 -0.226062 0.966757
vn -0.351131 0.089330 0.932055
vn -0.351131 0.089330 0.932055
vn -0.351131 0.089330 0.932055
vn -0.183128 -0.192945 0.963969
vn -0.183128 -0.192945 0.963969
vn -0.183128 -0.192945 0.963969
vn -0.003895 0.499806 0.866128
vn -0.003895 0.499806 0.866128
vn -0.003895 0.499806 0.866128
vn -0.352845 0.134502 0.925964
vn -0.352845 0.134502 0.925964
vn -0.352845 0.134502 0.925964
vn 0.355607 0.137627 0.924447
vn 0.355607 0.137627 0.924447
vn 0.355607 0.137627 0.924447
vn 0.000511 0.499857 0.866108
vn 0.000511 0.499857 0.866108
vn 0.000511 0.499857 0.866108
vn 0.000523 0.510528 -0.859861
vn 0.000523 0.510528 -0.859861
vn 0.000523 0.510528 -0.859861
vn 0.363878 0.140828 -0.920739
vn 0.363878 0.140828 -0.920739
vn 0.363878 0.140828 -0.920739
vn -0.361483 0.137795 -0.922140
vn -0.361483 0.137795 -0.922140
vn -0.361483 0.137795 -0.922140
vn -0.003978 0.510481 -0.859880
vn -0.003978 0.510481 -0.859880
vn -0.003978 0.510481 -0.859880
vn -0.187846 -0.197916 -0.962051
vn -0.187846 -0.197916 -0.962051
vn -0.187846 -0.197916 -0.962051
vn -0.359816 0.091540 -0.928522
vn -0.359816 0.091540 -0.928522
vn -0.359816 0.091540 -0.928522
vn 0.122515 -0.231794 -0.965019
vn 0.122515 -0.231794 -0.965019
vn 0.122515 -0.231794 -0.965019
vn -0.120337 -0.231969 -0.965251
vn -0.120337 -0.231969 -0.965251
vn -0.120337 -0.231969 -0.965251
vn 0.362565 0.095632 -0.927039
vn 0.362565 0.095632 -0.927039
vn 0.362565 0.095632 -0.927039
vn 0.189812 -0.197799 -0.961690
vn 0.189812 -0.197799 -0.961690
vn 0.189812 -0.197799 -0.961690
vn 0.185160 -0.192952 0.963579
vn 0.185160 -0.192952 0.963579
vn 0.185160 -0.192952 0.963579
vn 0.354238 0.093435 0.930476
vn 0.354238 0.093435 0.930476
vn 0.354238 0.093435 0.930476
vn -0.117313 -0.226141 0.967005
vn -0.117313 -0.226141 0.967005
vn -0.117313 -0.226141 0.967005
vn 0.119486 -0.226062 0.966757
vn 0.119486 -0.226062 0.966757
vn 0.119486 -0.226062 0.966757
vn -0.351131 0.089330 0.932055
vn -0.351131 0.089330 0.932055
vn -0.351131 0.089330 0.932055
vn -0.183128 -0.192945 0.963969
vn -0.183128 -0.192945 0.963969
vn -0.183128 -0.192945 0.963969
vn -0.003895 0.499806 0.866128
vn -0.003895 0.499806 0.866128
vn -0.003895 0.499806 0.866128
vn -0.352845 0.134502 0.925964
vn -0.352845 0.134502 0.925964
vn -0.352845 0.134502 0.925964
vn 0.355607 0.137627 0.924447
vn 0.355607 0.137627 0.924447
vn 0.355607 0.137627 0.924447
vn 0.000511 0.499857 0.866108
vn 0.000511 0.499857 0.866108
vn 0.000511 0.499857 0.866108
vn 0.000523 0.510528 -0.859861
vn 0.000523 0.510528 -0.859861
vn 0.000523 0.510528 -0.859861
vn 0.363878 0.140828 -0.920739
vn 0.363878 0.140828 -0.920739
vn 0.363878 0.140828 -0.920739
vn -0.361483 0.137795 -0.922140
vn -0.361483 0.137795 -0.922140
vn -0.361483 0.137795 -0.922140
vn -0.003978 0.510481 -0.859880
vn -0.003978 0.510481 -0.859880
vn -0.003978 0.510481 -0.859880
vn -0.187846 -0.197916 -0.962051
vn -0.187846 -0.197916 -0.962051
vn -0.187846 -0.197916 -0.962051
vn -0.359816 0.091540 -0.928522
vn -0.359816 0.091540 -0.928522
vn -0.359816 0.091540 -0.928522
vn 0.122515 -0.231794 -0.965019
vn 0.122515 -0.231794 -0.965019
vn 0.122515 -0.231794 -0.965019
vn -0.120337 -0.231969 -0.965251
vn -0.120337 -0.231969 -0.965251
vn -0.120337 -0.231969 -0.965251
vn 0.362565 0.095632 -0.927039
vn 0.362565 0.095632 -0.927039
vn 0.362565 0.095632 -0.927039
vn 0.189812 -0.197799 -0.961690
vn 0.189812 -0.197799 -0.961690
vn 0.189812 -0.197799 -0.961690
vn 0.185160 -0.192952 0.963579
vn 0.185160 -0.192952 0.963579
vn 0.185160 -0.192952 0.963579
vn 0.354238 0.093435 0.930476
vn 0.354238 0.093435 0.930476
vn 0.354238 0.093435 0.930476
vn -0.117313 -0.226141 0.967005
vn -0.117313 -0.226141 0.967005
vn -0.117313 -0.226141 0.967005
vn 0.119486 -0.226062 0.966757
vn 0.119486 -0.226062 0.966757
vn 0.119486 -0.226062 0.966757
vn -0.351131 0.089330 0.932055
vn -0.351131 0.089330 0.932055
vn -0.351131 0.089330 0.932055
vn -0.183128 -0.192945 0.963969
vn -0.183128 -0.192945 0.963969
vn -0.183128 -0.192945 0.963969
vn -0.003895 0.499806 0.866128
vn -0.003895 0.499806 0.866128
vn -0.003895 0.499806 0.866128
vn -0.352845 0.134502 0.925964
vn -0.352845 0.134502 0.925964
vn -0.352845 0.134502 0.925964
vn 0.355607 0.137627 0.924447
vn 0.355607 0.137627 0.924447
vn 0.355607 0.137627 0.924447
vn 0.000511 0.499857 0.866108
vn 0.000511 0.499857 0.866108
vn 0.000511 0.499857 0.866108
s off
g star:pCylinder1
usemtl initialShadingGroup
f 1/1/1 11/2/2 2/3/3
f 2/3/4 11/2/5 3/4/6
f 3/4/7 11/2/8 4/5/9
f 4/5/10 11/2/11 5/6/12
f 5/6/13 11/2/14 6/7/15
f 6/7/16 11/2/17 7/8/18
f 7/8/19 11/2/20 8/9/21
f 8/9/22 11/2/23 9/10/24
f 9/10/25 11/2/26 10/11/27
f 10/11/28 11/2/29 1/12/30
f 1/13/31 12/14/32 10/15/33
f 10/15/34 12/14/35 9/16/36
f 9/16/37 12/14/38 8/17/39
f 8/17/40 12/14/41 7/18/42
f 7/18/43 12/14/44 6/19/45
f 6/19/46 12/14/47 5/20/48
f 5/20/49 12/14/50 4/21/51
f 4/21/52 12/14/53 3/22/54
f 3/22/55 12/14/56 2/23/57
f 2/23/58 12/14/59 1/13/60
f 13/24/61 23/25/62 14/26/63
f 14/26/64 23/25/65 15/27/66
f 15/27/67 23/25/68 16/28/69
f 16/28/70 23/25/71 17/29/72
f 17/29/73 23/25/74 18/30/75
f 18/30/76 23/25/77 19/31/78
f 19/31/79 23/25/80 20/32/81
f 20/32/82 23/25/83 21/33/84
f 21/33/85 23/25/86 22/34/87
f 22/34/88 23/25/89 13/35/90
f 13/36/91 24/37/92 22/38/93
f 22/38/94 24/37/95 21/39/96
f 21/39/97 24/37/98 20/40/99
f 20/40/100 24/37/101 19/41/102
f 19/41/103 24/37/104 18/42/105
f 18/42/106 24/37/107 17/43/108
f 17/43/109 24/37/110 16/44/111
f 16/44/112 24/37/113 15/45/114
f 15/45/115 24/37/116 14/46/117
f 14/46/118 24/37/119 13/36/120
f 25/47/121 35/48/122 26/49/123
f 26/49/124 35/48/125 27/50/126
f 27/50/127 35/48/128 28/51/129
f 28/51/130 35/48/131 29/52/132
f 29/52/133 35/48/134 30/53/135
f 30/53/136 35/48/137 31/54/138
f 31/54/139 35/48/140 32/55/141
f 32/55/142 35/48/143 33/56/144
f 33/56/145 35/48/146 34/57/147
f 34/57/148 35/48/149 25/58/150
f 25/59/151 36/60/152 34/61/153
f 34/61/154 36/60/155 33/62/156
f 33/62/157 36/60/158 32/63/159
f 32/63/160 36/60/161 31/64/162
f 31/64/163 36/60/164 30/65/165
f 30/65/166 36/60/167 29/66/168
f 29/66/169 36/60/170 28/67/171
f 28/67/172 36/60/173 27/68/174
f 27/68/175 36/60/176 26/69/177
f 26/69/178 36/60/179 25/59/180
